<svg xmlns="http://www.w3.org/2000/svg"><symbol id="instagram" viewBox="0 0 50 50"><path fill="#f6adca" d="M0 25V14A13.8 13.8 0 0 1 4.6 3.6a13.2 13.2 0 0 1 7-3.4l2.1-.2h22.6a13.6 13.6 0 0 1 8.9 3.4 13.2 13.2 0 0 1 4.4 7.3 10.3 10.3 0 0 1 .4 3v22.6a13.2 13.2 0 0 1-3.4 8.9 12.6 12.6 0 0 1-6.3 4.1 10.7 10.7 0 0 1-3.9.7H13.7a13.2 13.2 0 0 1-8.9-3.4 13.6 13.6 0 0 1-4.5-7.7 10.7 10.7 0 0 1-.3-2.5V25zm25 13.9A13.9 13.9 0 1 0 11.1 25 13.9 13.9 0 0 0 25 38.9zM44.4 8.4a2.8 2.8 0 1 0-2.7 2.7 2.7 2.7 0 0 0 2.7-2.7z"/><path fill="#f6adca" d="M25 16.7a8.3 8.3 0 1 0 8.3 8.3 8.3 8.3 0 0 0-8.3-8.3z"/><path fill="#f6adca" d="M25 16.7a8.3 8.3 0 1 1-8.3 8.3 8.3 8.3 0 0 1 8.3-8.3z"/></symbol><symbol id="pinterest" viewBox="0 0 50 50"><g fill="#f6adca"><path d="M0 25a25 25 0 1 1 25 25A25.1 25.1 0 0 1 0 25zm25 22.8A22.8 22.8 0 1 0 2.2 24.6 22.7 22.7 0 0 0 25 47.8z"/><path d="M22.9 31.1a8.3 8.3 0 0 0-.4 1.5c-.4 1.3-.7 2.7-1.1 4.1a13.7 13.7 0 0 1-1.6 3.2l-1.3 1.9c-.2.2-.3.4-.5.5s-.4.1-.5-.2-.1-.5-.1-.8-.1-2.1-.1-3.2a10.1 10.1 0 0 1 .2-2.5c.4-1.8.9-3.6 1.3-5.4s.9-3.5 1.3-5.2c0-.1 0-.1-.1-.2a6.5 6.5 0 0 1-.5-3.1 5.5 5.5 0 0 1 1-3.2 3.2 3.2 0 0 1 3.6-1.3 2.1 2.1 0 0 1 1.6 1.7 3.8 3.8 0 0 1 0 2.1l-.9 3.3c-.2.7-.5 1.5-.7 2.3a2.8 2.8 0 0 0 2.2 3.4 3.8 3.8 0 0 0 3.6-.8 8.7 8.7 0 0 0 1.7-2.1 13.6 13.6 0 0 0 1.4-4.3 16.3 16.3 0 0 0 .3-3.1 7.3 7.3 0 0 0-1.5-4 7 7 0 0 0-3.9-2.4 10.4 10.4 0 0 0-3.5-.3 9.6 9.6 0 0 0-5.3 2 8.6 8.6 0 0 0-2.6 3.4 9 9 0 0 0-.7 2.7 7 7 0 0 0 .5 3.5l.7 1.1a1 1 0 0 1 .3 1c-.2.5-.2 1-.4 1.4a.7.7 0 0 1-1 .6l-1.6-1a6.5 6.5 0 0 1-2.1-3.9 10.8 10.8 0 0 1-.2-3.1 10.1 10.1 0 0 1 .9-3.4 11.2 11.2 0 0 1 3-4.1 14.6 14.6 0 0 1 5.2-2.8 14 14 0 0 1 5-.6 15 15 0 0 1 5.9 1.4 10.5 10.5 0 0 1 4.7 4.4 8.7 8.7 0 0 1 1.2 3.4 11.6 11.6 0 0 1 .1 3.2 15.1 15.1 0 0 1-1.6 5.6 9.8 9.8 0 0 1-4.6 4.6 8.3 8.3 0 0 1-3.4 1 6.3 6.3 0 0 1-3.8-.8 3.5 3.5 0 0 1-1.7-1.5z"/></g></symbol><symbol id="vimeo" viewBox="0 0 50 50"><path fill="#f6adca" d="M0 41V9.1a4.3 4.3 0 0 0 .1-.5 16.6 16.6 0 0 1 .6-2.1A9.8 9.8 0 0 1 7.6.3L9.1 0H41l.7.2a9.7 9.7 0 0 1 8 7.5L50 9v32a6.4 6.4 0 0 0-.2.7 8.9 8.9 0 0 1-.3 1.4 9.8 9.8 0 0 1-7.2 6.6L41 50H9a19.4 19.4 0 0 1-2-.5 9.8 9.8 0 0 1-6.7-7.1zm27.7-23.5h2.1a2.3 2.3 0 0 1 2.5 2.2 6.5 6.5 0 0 1-.4 3.4l-1.8 3.7a7.5 7.5 0 0 1-1.5 2 1.7 1.7 0 0 1-2.2.6 3.5 3.5 0 0 1-1.1-1 7.6 7.6 0 0 1-1.6-3.8c-.2-1.4-.3-2.9-.5-4.3s-.5-3.3-.9-5a8.7 8.7 0 0 0-1.3-3.5 3.2 3.2 0 0 0-4.1-1.5 7.4 7.4 0 0 0-3.3 1.7l-6.8 5.7a.7.7 0 0 0-.1.5l.7.9a1.4 1.4 0 0 0 1.1.5l2.2-.5a2 2 0 0 1 2.4.7 11.7 11.7 0 0 1 .5 1.1c.6 1.8 1.2 3.6 1.7 5.5s1.3 5.1 2 7.6a15.4 15.4 0 0 0 2.1 4.7 4.7 4.7 0 0 0 2.7 2.1 7.2 7.2 0 0 0 2.5-.2 12.3 12.3 0 0 0 4.7-2.7 28 28 0 0 0 4.5-4.6 38.7 38.7 0 0 0 4.6-6.8 54.2 54.2 0 0 0 4.3-9.5 13.5 13.5 0 0 0 .7-4.1 3.6 3.6 0 0 0-2.5-3.3 7.8 7.8 0 0 0-5.8.1 13.1 13.1 0 0 0-6.5 5.8z"/></symbol></svg>