<svg xmlns="http://www.w3.org/2000/svg" width="67.2" height="67.2" viewBox="0 0 50 50"><path fill="#5b536b" d="M0 25V14A13.8 13.8 0 0 1 4.6 3.6a13.2 13.2 0 0 1 7-3.4l2.1-.2h22.6a13.6 13.6 0 0 1 8.9 3.4 13.2 13.2 0 0 1 4.4 7.3 10.3 10.3 0 0 1 .4 3v22.6a13.2 13.2 0 0 1-3.4 8.9 12.6 12.6 0 0 1-6.3 4.1 10.7 10.7 0 0 1-3.9.7H13.7a13.2 13.2 0 0 1-8.9-3.4 13.6 13.6 0 0 1-4.5-7.7 10.7 10.7 0 0 1-.3-2.5V25zm25 13.9A13.9 13.9 0 1 0 11.1 25 13.9 13.9 0 0 0 25 38.9zM44.4 8.4a2.8 2.8 0 1 0-2.7 2.7 2.7 2.7 0 0 0 2.7-2.7z"/><path fill="#5b536b" d="M25 16.7a8.3 8.3 0 1 0 8.3 8.3 8.3 8.3 0 0 0-8.3-8.3z"/><path fill="#5b536b" d="M25 16.7a8.3 8.3 0 1 1-8.3 8.3 8.3 8.3 0 0 1 8.3-8.3z"/></svg>