<svg xmlns="http://www.w3.org/2000/svg"><symbol id="facebook" viewBox="0 0 20 20"><path fill="#fff" d="M0 19.1V.9h.1a1 1 0 0 1 1-.8h18.1a1.2 1.2 0 0 1 .8 1.1v17.6a1.4 1.4 0 0 1-.2.7l-.7.4h-5.3v-7.6h2.4c.2 0 .2-.1.2-.2l.3-2.4a.9.9 0 0 0 .1-.5H14c-.1 0-.2 0-.2-.2V6.9a1.1 1.1 0 0 1 .9-1h2.2V3.1a10.1 10.1 0 0 0-3 0 4.5 4.5 0 0 0-1.8.7 4.1 4.1 0 0 0-1.3 2.8v2.5H8.1v3.1h2.6V20H.9c-.1 0-.1 0-.1-.1a.7.7 0 0 1-.6-.4c-.1-.1-.1-.3-.2-.4z"/></symbol><symbol id="instagram" viewBox="0 0 20 20"><path fill="#fff" d="M0 10V5.6a5.2 5.2 0 0 1 1.8-4.1A5.3 5.3 0 0 1 4.6.1h9.9a5.4 5.4 0 0 1 3.6 1.4 5.2 5.2 0 0 1 1.8 2.9c0 .4.1.8.1 1.2v9a5.2 5.2 0 0 1-1.4 3.6 4.7 4.7 0 0 1-2.5 1.6 4.1 4.1 0 0 1-1.6.3h-9a5.2 5.2 0 0 1-3.6-1.4 5.7 5.7 0 0 1-1.8-3.2c0-.3-.1-.6-.1-.9V10zm10 5.6a5.7 5.7 0 0 0 5.6-5.6 5.5 5.5 0 0 0-5.5-5.5A5.4 5.4 0 0 0 4.5 10a5.5 5.5 0 0 0 5.5 5.6zm7.8-12.3a1.1 1.1 0 0 0-2.2 0 1.1 1.1 0 1 0 2.2 0z"/><path fill="#fff" d="M10 6.7a3.3 3.3 0 1 0 3.3 3.3A3.3 3.3 0 0 0 10 6.7z"/><path fill="#fff" d="M10 6.7A3.3 3.3 0 1 1 6.7 10 3.3 3.3 0 0 1 10 6.7z"/></symbol><symbol id="pinterest" viewBox="0 0 20 20"><path fill="#fff" d="M0 10a10 10 0 1 1 10 10A10 10 0 0 1 0 10zm10 9.1a9.1 9.1 0 0 0 9.1-9.1 9.1 9.1 0 1 0-9.1 9.1z"/><path fill="#fff" d="M9.1 12.4c0 .2-.1.4-.1.6l-.5 1.7a3.8 3.8 0 0 1-.6 1.3l-.5.7-.2.2c-.1.1-.2.1-.2 0v-.4a5.3 5.3 0 0 1-.1-1.3 3.8 3.8 0 0 1 .1-1 16 16 0 0 0 .5-2.1A16 16 0 0 0 8 10a2.5 2.5 0 0 1-.2-1.2 2 2 0 0 1 .4-1.3A1.1 1.1 0 0 1 9.6 7a.8.8 0 0 1 .7.7v.8l-.4 1.2-.3.9a1.2 1.2 0 0 0 .9 1.4 2 2 0 0 0 1.5-.3c.2-.3.5-.5.6-.9a4.9 4.9 0 0 0 .6-1.7 4.9 4.9 0 0 0 .1-1.2 2.5 2.5 0 0 0-.6-1.6 2.9 2.9 0 0 0-1.6-1H9.8a4.5 4.5 0 0 0-2.2.7 3.6 3.6 0 0 0-1 1.4 1.9 1.9 0 0 0-.3 1 3.9 3.9 0 0 0 .2 1.5l.3.4c.1.1.2.2.1.4s-.1.4-.1.6-.2.3-.4.2l-.7-.4a2.5 2.5 0 0 1-.8-1.6 4.9 4.9 0 0 1-.1-1.2 3.3 3.3 0 0 1 .4-1.4 3.8 3.8 0 0 1 1.2-1.6 5.3 5.3 0 0 1 2.1-1.1 6.3 6.3 0 0 1 1.9-.3 4.8 4.8 0 0 1 2.4.6 4.5 4.5 0 0 1 1.9 1.7 7.8 7.8 0 0 1 .5 1.4v1.3a7.9 7.9 0 0 1-.6 2.2 3.9 3.9 0 0 1-1.9 1.9l-1.4.4a4 4 0 0 1-1.5-.3z"/></symbol></svg>